# xmcd
#
# Track frame offsets:
#	150
#	11954
#	22039
#	39834
#	55932
#	70297
#	83170
#	100653
#	112322
#	122665
#
# Disc length: 1817 seconds
#
# Revision: 1
# Processed by: cddbd v1.5.2PL0 Copyright (c) Steve Scherf et al.
# Submitted via: audiograbber 1.83.01
#
DISCID=8307170a
DTITLE=Patricia Morgan - It Ain't That Easy
DYEAR=2018
DGENRE=Country
TTITLE0=Wakijn Ater Midnight
TTITLE1=Tiger By The Tail
TTITLE2=Silver Wings
TTITLE3=Country Roads and Vapour Trails
TTITLE4=I Fall To Pieces
TTITLE5=Under Your Spell Again
TTITLE6=Blue Bayou
TTITLE7=Sweet Dreams Of You
TTITLE8=Help Me Make It Through The Night
TTITLE9=Black Hills Of Dakota
EXTD=
EXTT0=
EXTT1=
EXTT2=
EXTT3=
EXTT4=
EXTT5=
EXTT6=
EXTT7=
EXTT8=
EXTT9=
PLAYORDER=
